#!OML:ASF F:\VICON\USERDATA\INSTALL\rory3\rory3.ASF
:FULLY-SPECIFIED
:DEGREES
81
root -0.1492726744639744 17.33552396327322 18.00425249119435 2.6355164064783843 -2.2660613592370886 -3.145315429606174
lfemur -13.632914941068867 3.4234352859884387 -15.284558697143982
ltibia 96.66164887979699
lfoot 4.449291331616059 -5.274999636542017
ltoes -17.139153350670014
rfemur -11.209082326241873 4.637419895300042 32.53564131080294
rtibia 56.103120100414955
rfoot -6.022179325261004 -7.532225848310504
rtoes -3.094367757621546
lowerback 15.697740925580995 1.0858506115709008 1.9418334162793673
upperback -0.6827478031159508 1.8948001465635065 1.9996203062435447
thorax -10.677457560558075 0.9385161469621324 1.6395220631099117
lowerneck -21.358560859011174 -3.3259207671183795 -1.517690519770561
upperneck 12.703698186024939 -4.259872827502359 1.7438115661898896
head 7.217093380548556 -2.0350548759474196 0.2982939562873376
lclavicle 7.933867046664363e-17 -3.510693723876581e-16
lhumerus -42.005411192707626 -19.004678610085335 98.29408324867424
lradius 100.31928836337705
lwrist 32.67923432722616
lhand -24.55620460200896 2.5256308989561074
lfingers 7.12502
lthumb 1.912551742638344 32.04234842781984
rclavicle 7.933867060852736e-17 -3.5106937228197775e-16
rhumerus -53.79733523174109 4.8586707993172205 -94.32079522527776
rradius 108.7540590335398
rwrist -8.568453264030186
rhand -16.83995642911374 38.71383686405159
rfingers 7.12502
rthumb 9.176878951956454 8.509700338740616
82
root -0.15911121287568947 17.308367751290582 18.517254914180523 2.671810128222261 -2.160048818069783 -3.243029687285638
lfemur -15.697307535322423 3.9182359413713677 -14.999230641722697
ltibia 97.55285890625406
lfoot 4.02440534297041 -5.193270425106387
ltoes -18.84982767392998
rfemur -10.07801053333138 4.801452253960824 32.628633022517505
rtibia 57.47661550857404
rfoot -6.089622946332143 -8.543685841593406
rtoes -1.7885377549665051
lowerback 15.742414920489281 1.1669469345636059 2.0130979995509386
upperback -0.6524997034219955 2.0214217254152027 1.9989631301662962
thorax -10.726396305410045 0.9923386641974415 1.5342762759623385
lowerneck -21.40971578283587 -3.395458841263596 -1.5362854200903153
upperneck 12.606581065541288 -4.3482018931264 1.7579069195147312
head 7.216417645061746 -2.073469946241724 0.27730244619681926
lclavicle 7.933867046714719e-17 -3.5106937238794593e-16
lhumerus -42.147031549136884 -18.709577708951244 98.3587111509004
lradius 100.41058533708954
lwrist 32.613290714671585
lhand -24.65076844915341 2.5444655910760834
lfingers 7.12502
lthumb 1.8948403500365663 32.06373492422192
rclavicle 7.933867061298142e-17 -3.510693722792555e-16
rhumerus -53.201736535061 5.232292925040841 -94.4998428224725
rradius 108.61284467334072
rwrist -8.394393892281755
rhand -16.883537132619868 38.5942889620507
rfingers 7.12502
rthumb 9.11248258241873 8.414665667187556
83
root -0.1610856449869051 17.285304422609418 18.999742390089963 2.711027852685986 -2.053902825051133 -3.3028252112789422
lfemur -17.73453699548726 4.372892327412702 -14.842231788887254
ltibia 98.14000370507023
lfoot 3.667587114103701 -5.224386955794631
ltoes -19.420169356531183
rfemur -9.0319426118746 4.902585599466235 32.65652108137027
rtibia 58.79799574472854
rfoot -5.840684565304996 -9.400753587234567
rtoes -1.3569300266020496
lowerback 15.755142841237843 1.2439712923284734 2.07163039878529
upperback -0.6412135972358686 2.1435747980165765 1.9826654268910273
thorax -10.761604755923868 1.051934832848985 1.4335151050797617
lowerneck -21.428120580255765 -3.46184248080715 -1.567137375854045
upperneck 12.535188273563868 -4.433797393723621 1.7775962935889096
head 7.226671710172276 -2.108002207330736 0.25893922600487806
lclavicle 7.933867046635542e-17 -3.510693723892712e-16
lhumerus -42.372978422968764 -18.40711074459545 98.41996552115549
lradius 100.55326066162355
lwrist 32.60603844015694
lhand -24.743706448119756 2.5771854600184025
lfingers 7.12502
lthumb 1.8913833700841325 32.01998745845134
rclavicle 7.933867061448436e-17 -3.5106937227883492e-16
rhumerus -52.61651294533881 5.6270363846356215 -94.67204757475025
rradius 108.47377310775097
rwrist -8.223530497707353
rhand -16.88199910559867 38.567539491821464
rfingers 7.12502
rthumb 9.078929849696726 8.378613345116307
84
root -0.16160813463218726 17.28221602934649 19.387012725042283 2.788182950091316 -1.9406725669209874 -3.378115635639897
lfemur -19.743144929654463 4.755425578012018 -14.75101825701686
ltibia 98.4318402001509
lfoot 3.4160599598890675 -5.423097078018312
ltoes -18.34053896222402
rfemur -8.042105474127663 4.958869228099013 32.69069229597456
rtibia 60.0309270068422
rfoot -5.6315479642283774 -10.101852946907389
rtoes -1.4254917312270363
lowerback 15.744785399610732 1.3140307478121778 2.1484844672161962
upperback -0.6452860157742579 2.2546948491437737 1.965559900572972
thorax -10.793493419247325 1.10148911386787 1.337798754683943
lowerneck -21.446969355966743 -3.5197795391288995 -1.5997899213323408
upperneck 12.493667705493472 -4.506678682992605 1.7934916026809695
head 7.251970586117538 -2.1340449349601056 0.23856998633665777
lclavicle 7.933867046715756e-17 -3.5106937238939383e-16
lhumerus -42.72838221514174 -18.03923773562177 98.46418559769734
lradius 100.77073890463892
lwrist 32.70657497154883
lhand -24.731285452454603 2.593241877570026
lfingers 7.12502
lthumb 1.8041781640038632 31.740939849979288
rclavicle 7.933867061947641e-17 -3.510693722757558e-16
rhumerus -52.045764516394335 6.034454944989336 -94.82527216583244
rradius 108.32442156780907
rwrist -8.248471703065398
rhand -16.850002582942142 38.59990438721652
rfingers 7.12502
rthumb 9.133388299001515 8.470774955770313
85
root -0.1603081282004477 17.28684792738444 19.683790134946562 2.8769774772194374 -1.841739823125552 -3.458248214654344
lfemur -21.685241189086696 5.071162370066251 -14.730515027225465
ltibia 98.45381250506776
lfoot 2.92183026780459 -5.603284634667474
ltoes -17.198675428545737
rfemur -7.121223445032282 4.996427927723587 32.720025666199845
rtibia 61.21371419369605
rfoot -5.600155339413752 -10.618452842269395
rtoes -1.5759880147896865
lowerback 15.711564414927366 1.3842381747475678 2.2388814506161077
upperback -0.6586296455353624 2.372691135299627 1.946800192401084
thorax -10.813597575316773 1.1548641440908598 1.238528250886281
lowerneck -21.483584472467637 -3.57519920421696 -1.6358085903396422
upperneck 12.495088979128933 -4.57747597455725 1.8065300317977253
head 7.296180514295375 -2.1567360564844265 0.2163385211551389
lclavicle 7.933867046882629e-17 -3.5106937238893032e-16
lhumerus -43.169684328143 -17.76869479026846 98.46459127633233
lradius 100.97937637590975
lwrist 32.935491016922185
lhand -24.729108702580213 2.6804174398533807
lfingers 7.12502
lthumb 1.7139435749833576 31.737182405962482
rclavicle 7.933867062433022e-17 -3.510693722728666e-16
rhumerus -51.497039854355364 6.452515357278772 -94.95207334142333
rradius 108.1747946093181
rwrist -8.476355068785987
rhand -16.760699855433227 38.71359985917502
rfingers 7.12502
rthumb 9.230326039093953 8.600986468066683
86
root -0.16571220731900066 17.284425991564135 19.923487272212853 2.939510797149807 -1.768889528714982 -3.5263057070290125
lfemur -23.538114352310618 5.346911865378246 -14.775078087251048
ltibia 98.23290040382264
lfoot 1.6337954841352933 -6.146642183702053
ltoes -17.11320885803496
rfemur -6.3101704974276025 5.0686638350752595 32.70042490490292
rtibia 62.39332666720071
rfoot -5.758705396391226 -10.87805845345186
rtoes -1.6632954035009186
lowerback 15.709210882410174 1.4593480206837879 2.2887576646990624
upperback -0.6741504430598158 2.4929426954694494 1.936730850408931
thorax -10.841777252599478 1.2007062404690958 1.1471895777656762
lowerneck -21.489713281020098 -3.6238643992523167 -1.6690854114416493
upperneck 12.535370377683051 -4.643814509103565 1.824046559125068
head 7.343094926942519 -2.1762314426893647 0.19871600196701994
lclavicle 7.933867046912477e-17 -3.510693723895748e-16
lhumerus -43.64097912809061 -17.586269758740393 98.47389293488845
lradius 101.15823860436915
lwrist 33.221287498685385
lhand -24.759717849419633 2.7917938969858667
lfingers 7.12502
lthumb 1.7953269505488285 32.066838192567836
rclavicle 7.933867062760222e-17 -3.5106937227126487e-16
rhumerus -50.96578501311156 6.873407061521703 -95.04520429793581
rradius 108.02136169093096
rwrist -8.699253004699173
rhand -16.701975212884978 38.828033241501764
rfingers 7.12502
rthumb 9.337070972515658 8.781853778015673
